<?xml version="1.0" standalone="no"?>
<!DOCTYPE svg PUBLIC "-//W3C//DTD SVG 20010904//EN"
 "http://www.w3.org/TR/2001/REC-SVG-20010904/DTD/svg10.dtd">
<svg version="1.0" xmlns="http://www.w3.org/2000/svg"
 width="1280.000000pt" height="501.000000pt" viewBox="0 0 1280.000000 501.000000"
 preserveAspectRatio="xMidYMid meet">
<metadata>
Created by potrace 1.15, written by Peter Selinger 2001-2017
</metadata>
<g transform="translate(0.000000,501.000000) scale(0.100000,-0.100000)"
fill="#000000" stroke="none">
<path d="M10425 4839 c-330 -51 -598 -310 -687 -665 -18 -72 -22 -117 -22
-234 0 -171 21 -272 83 -406 56 -119 105 -188 193 -275 l77 -76 -107 -22
c-398 -84 -806 -310 -1001 -556 -33 -41 -66 -84 -74 -95 -14 -20 -18 -21 -78
-9 -35 7 -66 14 -68 16 -2 1 25 30 61 62 116 107 213 270 258 436 33 120 38
328 12 457 -36 175 -112 323 -230 449 -304 324 -775 342 -1094 41 -121 -114
-202 -248 -255 -418 -25 -83 -27 -101 -27 -274 0 -173 2 -191 27 -273 52 -169
139 -312 257 -421 33 -30 60 -57 60 -59 0 -2 -28 -10 -62 -16 -154 -29 -401
-111 -526 -175 -47 -24 -55 -25 -104 -15 l-54 11 85 87 c103 105 171 214 217
348 160 474 -59 1001 -487 1172 -109 43 -182 55 -317 48 -207 -9 -375 -88
-522 -243 -117 -124 -182 -243 -228 -414 -35 -133 -37 -342 -3 -475 44 -177
164 -378 286 -481 l49 -41 -80 -17 c-113 -25 -274 -72 -346 -101 -34 -14 -64
-25 -67 -25 -4 0 -38 30 -76 67 -238 227 -581 394 -976 473 l-56 11 70 67
c200 193 300 454 284 741 -30 543 -483 935 -965 835 -349 -72 -611 -378 -662
-774 -38 -294 71 -606 280 -804 40 -37 65 -68 58 -70 -7 -2 -79 -19 -159 -39
-118 -28 -245 -72 -395 -133 -7 -3 -6 24 3 83 36 227 -22 488 -151 682 -56 84
-183 207 -262 253 -145 85 -258 113 -431 106 -98 -4 -133 -10 -205 -35 -268
-93 -471 -325 -549 -628 -34 -128 -34 -351 -1 -474 50 -183 128 -320 253 -443
l79 -77 -58 -11 c-203 -41 -373 -99 -557 -191 -349 -173 -583 -416 -680 -703
l-25 -75 0 -420 0 -421 1175 0 1175 0 2 611 3 610 170 0 170 0 2 -608 3 -608
444 -3 443 -2 74 215 74 215 259 -2 259 -3 76 -212 76 -213 147 0 147 0 5 32
c9 56 62 948 67 1123 l1 40 15 -50 c66 -228 131 -424 251 -755 l139 -385 70
-3 c60 -2 72 0 78 15 76 190 321 842 367 977 34 100 64 185 68 189 4 4 8 -52
9 -125 1 -113 16 -399 47 -945 l7 -113 94 0 95 0 -6 62 c-4 35 -22 306 -41
603 -19 297 -36 560 -39 584 -2 25 0 38 4 30 4 -7 84 -299 176 -647 l169 -633
100 3 100 3 38 130 c137 470 247 863 263 940 l18 89 27 -139 c15 -77 78 -339
140 -583 l112 -443 101 3 101 3 127 425 c141 472 139 467 132 425 -2 -16 -7
-76 -11 -132 -19 -323 132 -595 389 -700 58 -23 66 -24 277 -21 l218 3 87 43
c120 60 208 148 270 272 25 50 49 107 53 128 5 24 10 -48 13 -203 l5 -240 93
-3 92 -3 0 296 0 295 124 0 c241 0 292 -45 361 -320 20 -80 45 -173 56 -207
l21 -63 169 0 169 0 0 258 0 259 73 78 72 77 235 -333 235 -334 663 -3 662 -2
0 983 c0 950 -1 985 -20 1054 -98 354 -432 663 -904 838 -108 40 -352 105
-393 105 -23 0 -19 7 50 74 162 160 251 345 278 580 53 453 -226 890 -631 989
-85 21 -209 28 -285 16z m237 -130 c29 -6 95 -31 147 -56 169 -81 304 -241
370 -438 77 -231 50 -500 -71 -709 -55 -96 -182 -221 -270 -266 -46 -24 -66
-40 -64 -50 3 -8 7 -34 11 -57 6 -38 10 -43 38 -47 185 -29 248 -41 343 -66
528 -137 912 -440 1026 -810 l22 -75 4 -907 3 -908 -538 0 -538 0 -234 328
c-129 180 -234 332 -235 339 -1 6 107 132 239 279 132 148 248 278 258 291
l18 23 -114 0 -115 0 -229 -267 c-126 -148 -254 -299 -284 -338 l-54 -69 -3
337 -2 337 -90 0 -90 0 0 -622 c0 -350 -4 -616 -9 -608 -5 8 -25 80 -46 160
-20 79 -48 166 -61 192 -29 56 -81 111 -131 136 l-36 19 56 26 c75 34 150 106
184 176 24 49 27 68 28 151 0 82 -4 103 -26 151 -65 138 -199 208 -430 224
-86 6 -298 -5 -398 -21 l-41 -7 -1 -226 0 -226 -18 55 c-84 263 -297 423 -582
437 -275 14 -497 -108 -621 -341 -20 -39 -38 -68 -38 -65 0 3 25 88 55 189 30
101 55 187 55 192 0 4 -43 8 -95 8 -52 0 -95 -2 -95 -5 0 -2 -48 -177 -106
-387 -95 -346 -185 -692 -196 -758 -6 -34 -11 -18 -38 125 -17 92 -169 713
-241 988 l-10 37 -94 0 c-52 0 -97 -4 -100 -10 -10 -17 -250 -887 -280 -1015
-15 -66 -30 -127 -32 -135 -3 -8 -25 73 -49 180 -24 107 -88 371 -142 585
l-97 390 -214 0 -213 0 -135 -345 c-74 -190 -167 -444 -208 -565 -41 -120 -76
-213 -79 -205 -2 8 -26 85 -51 170 -38 127 -274 784 -329 915 l-15 36 -118 -3
-118 -3 -41 -560 c-23 -308 -44 -573 -45 -589 -3 -20 -67 147 -215 560 l-212
589 -113 0 -113 0 -220 -612 -220 -613 -278 0 -278 0 0 245 0 245 280 0 280 0
0 75 0 75 -280 0 -280 0 0 220 0 220 295 0 295 0 0 75 0 75 -880 0 -880 0 0
-80 0 -79 218 0 217 0 0 -553 0 -553 -1025 0 -1025 0 0 320 c1 300 2 325 23
398 46 162 133 299 275 434 235 221 636 397 1018 445 l99 12 5 35 c4 20 8 46
11 58 3 18 -7 27 -59 57 -178 100 -312 279 -368 491 -28 107 -31 288 -5 398
124 542 680 772 1082 448 81 -65 147 -150 200 -256 61 -125 76 -187 81 -345 6
-166 -7 -233 -75 -403 -27 -67 -48 -123 -47 -125 1 -1 37 18 79 43 261 154
514 245 811 290 61 9 113 20 116 23 4 4 9 30 13 59 l7 52 -53 27 c-180 91
-326 287 -379 509 -18 77 -20 111 -16 230 4 122 8 152 35 235 44 132 92 210
197 316 75 77 104 98 175 132 140 66 253 83 388 58 310 -56 541 -326 583 -683
37 -312 -118 -637 -376 -787 -69 -41 -71 -45 -59 -117 l6 -37 92 -11 c215 -28
461 -99 656 -192 162 -77 290 -167 414 -291 l108 -109 99 41 c54 22 151 56
216 74 111 32 337 76 389 76 24 0 26 4 39 81 6 37 5 37 -62 75 -85 47 -224
185 -276 274 -21 36 -52 108 -69 160 -31 91 -32 101 -33 260 0 193 11 246 79
385 131 266 373 417 641 402 168 -10 297 -70 426 -197 128 -128 205 -292 229
-489 40 -322 -126 -662 -387 -798 -49 -26 -53 -31 -52 -63 2 -82 2 -82 135
-101 67 -10 140 -23 163 -29 36 -9 47 -9 67 5 39 25 194 91 295 125 119 40
265 74 398 94 57 8 105 17 106 18 2 2 6 28 9 58 l7 55 -72 40 c-227 126 -378
402 -379 691 0 346 188 637 488 752 61 24 80 26 207 26 127 0 146 -2 207 -26
99 -37 173 -85 247 -158 165 -161 251 -390 238 -630 -8 -136 -28 -212 -87
-335 -71 -147 -184 -267 -313 -335 l-48 -25 7 -55 c4 -30 7 -56 8 -57 1 -1 51
-9 111 -18 61 -9 150 -25 198 -37 49 -11 89 -18 91 -16 1 1 27 41 58 88 199
303 613 536 1103 620 72 12 140 24 152 26 23 4 26 12 37 84 6 35 5 35 -61 70
-123 63 -254 210 -319 356 -44 100 -67 217 -67 344 0 244 86 448 253 603 79
73 198 140 287 161 71 17 213 20 285 5z m-1882 -3271 c50 -15 109 -46 152 -80
53 -41 122 -151 155 -243 25 -74 27 -92 27 -225 0 -130 -3 -153 -27 -226 -50
-149 -133 -249 -256 -308 -62 -29 -73 -31 -177 -31 -107 0 -112 1 -185 37
-188 93 -287 292 -276 558 5 135 38 249 101 343 104 157 306 229 486 175z
m1058 -13 c63 -19 128 -74 153 -130 42 -91 11 -232 -63 -288 -78 -60 -121 -71
-286 -75 l-152 -4 2 253 3 254 50 7 c78 10 234 1 293 -17z m-5348 -100 c12
-44 60 -184 106 -311 46 -127 84 -234 84 -238 0 -3 -97 -6 -215 -6 -118 0
-215 3 -215 8 0 4 34 102 75 217 42 116 87 251 101 300 32 114 34 119 38 114
2 -2 14 -40 26 -84z"/>
</g>
</svg>
